<svg id="레이어_1" data-name="레이어 1" xmlns="http://www.w3.org/2000/svg" viewBox="0 0 804.05 108.32"><defs><style>.cls-1{fill:none;}.cls-1,.cls-2{stroke:#000;stroke-miterlimit:10;}</style></defs><path class="cls-1" d="M70.75,299.9c-3.69,3.35-5.33,8.38-6.3,13.28s-1.31,10.36,1.39,14.58c2.82,4.41,8.18,6.33,13.16,7.93,6.26,2,12.75,4,19.29,3.33s13.21-4.64,15-11-1.7-12.86-5-18.55c-4.16-7.11-7.08-12.55-15.37-13.71C85.77,294.8,76.33,294.83,70.75,299.9Z" transform="translate(-50.77 -255.81)"/><path class="cls-1" d="M157.43,316.76c3.67,8.65,1.06,20.08-7.07,24.79-13.86,8-39.05,3.75-41.63-14.19-1.83-12.74,5.77-27.66,19.74-28.2C139.92,298.72,152.91,306.1,157.43,316.76Z" transform="translate(-50.77 -255.81)"/><path class="cls-1" d="M189.87,305.43c-6.39-1.08-13.12-1.41-19.38.11s-12,5.09-14.41,10.1-1.17,10.79,2.07,15.43,8.29,8.26,13.68,11.25c7.92,4.37,17.15,7.65,26.67,7.32s19.22-5,22.31-12.39c3-7.28,4.7-16.37-2.7-21.29C210.13,310.64,199.86,307.12,189.87,305.43Z" transform="translate(-50.77 -255.81)"/><path class="cls-1" d="M79.46,318a6.22,6.22,0,0,0,2.57-3.5,5.17,5.17,0,0,0,.37-2.08c-.1-.86-.46-1.78-.65-2.63a9.65,9.65,0,0,0-.3-1.62c-.5-1.13-2.29-2-3.37-2.38-1.79-.67-4.22,1.39-5.2,2.78a7,7,0,0,0-.27,7.63A5.26,5.26,0,0,0,79.46,318Z" transform="translate(-50.77 -255.81)"/><ellipse class="cls-2" cx="26.12" cy="55.82" rx="3.06" ry="3.62"/><path class="cls-1" d="M62.68,321.54a30,30,0,0,0,5.36.59,9.32,9.32,0,0,0,5-1.29" transform="translate(-50.77 -255.81)"/><path class="cls-1" d="M72.38,318.87a2.3,2.3,0,0,0,.65,2A4.25,4.25,0,0,0,75.32,322" transform="translate(-50.77 -255.81)"/><path class="cls-1" d="M99.35,299.7c12.33-4.09,20.92-17.36,19.59-30.28" transform="translate(-50.77 -255.81)"/><path class="cls-2" d="M51.28,287.21a3.36,3.36,0,1,0,6.38-1.9c-.19-.43-1.82-1-2.26-1.26a1.65,1.65,0,0,0-2.06,0C52.68,284.53,51.15,286.34,51.28,287.21Z" transform="translate(-50.77 -255.81)"/><path class="cls-1" d="M58.1,286.56a17.11,17.11,0,0,1,17.53,10.12" transform="translate(-50.77 -255.81)"/><path class="cls-2" d="M113.73,269.76a3.36,3.36,0,1,0,6.38-1.91c-.19-.42-1.82-1-2.25-1.26a1.68,1.68,0,0,0-2.07,0C115.13,267.08,113.6,268.89,113.73,269.76Z" transform="translate(-50.77 -255.81)"/><path class="cls-1" d="M78.05,296.72c.48,2.62,3.24,4.21,5.87,4.65s5.33.11,7.93.7c7.1,1.6,11.1,9.78,10.54,17.06s-4.47,13.81-8.28,20" transform="translate(-50.77 -255.81)"/><path class="cls-1" d="M116.24,339.71l-.64,8.71a10.65,10.65,0,0,0-4.94-.66c-1.65.3-3.24,1.67-3.19,3.35a3.63,3.63,0,0,0,2.71,3.09,10.33,10.33,0,0,0,4.36.07c2.11-.29,4.4-.71,5.81-2.3,2.1-2.39,1.24-6.06.26-9.09" transform="translate(-50.77 -255.81)"/><path class="cls-1" d="M131.23,342.29l-.64,8.7a10.65,10.65,0,0,0-4.94-.66c-1.65.3-3.24,1.67-3.19,3.35a3.63,3.63,0,0,0,2.71,3.09,10.33,10.33,0,0,0,4.36.07c2.11-.29,4.4-.71,5.81-2.3,2.1-2.38,1.24-6.06.26-9.09" transform="translate(-50.77 -255.81)"/><path class="cls-1" d="M146.22,342.29l-.63,8.7a10.69,10.69,0,0,0-5-.66c-1.65.3-3.24,1.67-3.19,3.35a3.63,3.63,0,0,0,2.71,3.09,10.33,10.33,0,0,0,4.36.07c2.11-.29,4.4-.71,5.81-2.3,2.1-2.38,1.24-6.06.26-9.09" transform="translate(-50.77 -255.81)"/><path class="cls-1" d="M165.86,339.71l-.64,8.71a10.69,10.69,0,0,0-4.95-.66c-1.65.3-3.24,1.67-3.19,3.35a3.65,3.65,0,0,0,2.72,3.09,10.32,10.32,0,0,0,4.36.07c2.11-.29,4.39-.71,5.8-2.3,2.11-2.39,1.25-6.06.27-9.09" transform="translate(-50.77 -255.81)"/><path class="cls-1" d="M198.38,348.87l-.64,8.71a10.65,10.65,0,0,0-4.94-.66c-1.65.3-3.24,1.67-3.19,3.35a3.63,3.63,0,0,0,2.71,3.09,10.33,10.33,0,0,0,4.36.07c2.11-.29,4.4-.71,5.81-2.3,2.1-2.38,1.24-6.06.26-9.09" transform="translate(-50.77 -255.81)"/><path class="cls-1" d="M177.79,345.43l-.64,8.7a10.78,10.78,0,0,0-4.94-.66c-1.66.31-3.24,1.67-3.19,3.35a3.63,3.63,0,0,0,2.71,3.1,10.17,10.17,0,0,0,4.36.06c2.11-.28,4.4-.7,5.8-2.3,2.11-2.38,1.25-6.06.27-9.08" transform="translate(-50.77 -255.81)"/><path class="cls-1" d="M701.7,290c-3.7,3.35-5.34,8.38-6.3,13.28s-1.32,10.36,1.38,14.58c2.82,4.41,8.18,6.33,13.16,7.93,6.26,2,12.75,4,19.3,3.33s13.2-4.63,15-11-1.7-12.86-5-18.55c-4.16-7.11-7.07-12.55-15.37-13.71C716.71,284.89,707.28,284.92,701.7,290Z" transform="translate(-50.77 -255.81)"/><path class="cls-1" d="M788.38,306.85c3.66,8.65,1,20.08-7.08,24.79-13.86,8-39,3.75-41.62-14.19-1.83-12.74,5.76-27.66,19.73-28.2C770.87,288.81,783.86,296.19,788.38,306.85Z" transform="translate(-50.77 -255.81)"/><path class="cls-1" d="M820.82,295.52c-6.4-1.08-13.13-1.41-19.39.11s-12,5.09-14.4,10.1-1.17,10.79,2.06,15.43,8.29,8.26,13.69,11.25c7.91,4.37,17.14,7.65,26.66,7.32s19.22-5,22.32-12.39c3-7.27,4.7-16.37-2.7-21.29C841.08,300.73,830.8,297.21,820.82,295.52Z" transform="translate(-50.77 -255.81)"/><path class="cls-1" d="M710.41,308.07a6.24,6.24,0,0,0,2.56-3.5,5.36,5.36,0,0,0,.38-2.08c-.1-.86-.47-1.78-.66-2.63a8.74,8.74,0,0,0-.3-1.62c-.49-1.13-2.29-2-3.37-2.38-1.78-.67-4.21,1.4-5.2,2.78a7,7,0,0,0-.27,7.63A5.27,5.27,0,0,0,710.41,308.07Z" transform="translate(-50.77 -255.81)"/><ellipse class="cls-2" cx="657.06" cy="45.91" rx="3.06" ry="3.62"/><path class="cls-1" d="M693.62,311.63a30.12,30.12,0,0,0,5.36.59,9.32,9.32,0,0,0,5-1.29" transform="translate(-50.77 -255.81)"/><path class="cls-1" d="M703.32,309a2.33,2.33,0,0,0,.65,2,4.29,4.29,0,0,0,2.29,1.17" transform="translate(-50.77 -255.81)"/><path class="cls-1" d="M730.3,289.79c12.33-4.09,20.91-17.36,19.59-30.28" transform="translate(-50.77 -255.81)"/><path class="cls-2" d="M682.22,277.3a3.36,3.36,0,1,0,6.38-1.9c-.19-.43-1.82-1-2.25-1.26a1.65,1.65,0,0,0-2.07,0C683.62,274.62,682.09,276.43,682.22,277.3Z" transform="translate(-50.77 -255.81)"/><path class="cls-1" d="M689,276.65a17.1,17.1,0,0,1,17.53,10.12" transform="translate(-50.77 -255.81)"/><path class="cls-2" d="M744.68,259.85a3.36,3.36,0,1,0,6.38-1.91c-.2-.42-1.83-1-2.26-1.26a1.67,1.67,0,0,0-2.06,0C746.07,257.17,744.55,259,744.68,259.85Z" transform="translate(-50.77 -255.81)"/><path class="cls-1" d="M709,286.81c.48,2.62,3.25,4.21,5.87,4.65s5.34.11,7.93.7c7.1,1.6,11.1,9.78,10.55,17.06s-4.48,13.81-8.29,20" transform="translate(-50.77 -255.81)"/><path class="cls-1" d="M747.25,331.39l-6.61,5.71a10.64,10.64,0,0,0-3-4c-1.38-.95-3.47-1.11-4.62.12a3.63,3.63,0,0,0-.27,4.1,10.19,10.19,0,0,0,3,3.13c1.69,1.29,3.6,2.61,5.73,2.48,3.17-.2,5.16-3.41,6.61-6.24" transform="translate(-50.77 -255.81)"/><path class="cls-1" d="M762.18,332.38l-.64,8.7a10.69,10.69,0,0,0-4.95-.66c-1.65.3-3.24,1.67-3.19,3.35a3.64,3.64,0,0,0,2.72,3.09,10.16,10.16,0,0,0,4.36.07c2.11-.28,4.39-.7,5.8-2.3,2.11-2.38,1.24-6.06.26-9.09" transform="translate(-50.77 -255.81)"/><path class="cls-1" d="M771.46,333.35l5.7,6.6a10.73,10.73,0,0,0-4,3c-1,1.39-1.11,3.47.11,4.63a3.64,3.64,0,0,0,4.11.26,10.13,10.13,0,0,0,3.12-3c1.3-1.69,2.62-3.61,2.48-5.73-.19-3.18-3.4-5.17-6.23-6.61" transform="translate(-50.77 -255.81)"/><path class="cls-1" d="M802.69,331.39l-6.61,5.71a10.74,10.74,0,0,0-3-4c-1.38-.95-3.47-1.11-4.62.12a3.61,3.61,0,0,0-.27,4.1,10.08,10.08,0,0,0,3,3.13c1.69,1.29,3.6,2.61,5.73,2.48,3.17-.2,5.16-3.41,6.61-6.24" transform="translate(-50.77 -255.81)"/><path class="cls-1" d="M823.61,339.94l5.71,6.6a10.85,10.85,0,0,0-4,3c-1,1.38-1.11,3.47.12,4.62a3.61,3.61,0,0,0,4.1.27,10.16,10.16,0,0,0,3.13-3c1.29-1.7,2.61-3.61,2.48-5.73-.2-3.18-3.41-5.17-6.24-6.61" transform="translate(-50.77 -255.81)"/><path class="cls-1" d="M808.73,335.52l-.64,8.7a10.78,10.78,0,0,0-4.94-.66c-1.65.31-3.24,1.67-3.19,3.35a3.63,3.63,0,0,0,2.71,3.1,10.17,10.17,0,0,0,4.36.06c2.11-.28,4.4-.7,5.81-2.3,2.1-2.38,1.24-6.06.26-9.08" transform="translate(-50.77 -255.81)"/></svg>